<svg xmlns="http://www.w3.org/2000/svg" xmlns:xlink="http://www.w3.org/1999/xlink" width="150" zoomAndPan="magnify" viewBox="0 0 112.5 112.499997" height="150" preserveAspectRatio="xMidYMid meet" version="1.0"><defs><clipPath id="644d16178d"><path d="M 2.121094 2.121094 L 109.882812 2.121094 L 109.882812 109.882812 L 2.121094 109.882812 Z M 2.121094 2.121094 " clip-rule="nonzero"/></clipPath><clipPath id="783d667184"><path d="M 56 2.121094 C 26.242188 2.121094 2.121094 26.242188 2.121094 56 C 2.121094 85.757812 26.242188 109.882812 56 109.882812 C 85.757812 109.882812 109.882812 85.757812 109.882812 56 C 109.882812 26.242188 85.757812 2.121094 56 2.121094 Z M 56 2.121094 " clip-rule="nonzero"/></clipPath><clipPath id="e228941086"><path d="M 0.121094 0.121094 L 107.882812 0.121094 L 107.882812 107.882812 L 0.121094 107.882812 Z M 0.121094 0.121094 " clip-rule="nonzero"/></clipPath><clipPath id="dd12a7e2fe"><path d="M 54 0.121094 C 24.242188 0.121094 0.121094 24.242188 0.121094 54 C 0.121094 83.757812 24.242188 107.882812 54 107.882812 C 83.757812 107.882812 107.882812 83.757812 107.882812 54 C 107.882812 24.242188 83.757812 0.121094 54 0.121094 Z M 54 0.121094 " clip-rule="nonzero"/></clipPath><clipPath id="a008af56ed"><rect x="0" width="108" y="0" height="108"/></clipPath><clipPath id="1f4faea107"><path d="M 8.839844 6.625 L 103.308594 6.625 L 103.308594 96.53125 L 8.839844 96.53125 Z M 8.839844 6.625 " clip-rule="nonzero"/></clipPath><clipPath id="978a7f8a04"><path d="M 56 6.625 L 67.132812 40.964844 L 103.164062 40.964844 L 74.015625 62.191406 L 85.148438 96.53125 L 56 75.304688 L 26.851562 96.53125 L 37.988281 62.191406 L 8.839844 40.964844 L 44.867188 40.964844 Z M 56 6.625 " clip-rule="nonzero"/></clipPath><clipPath id="3a63e86302"><path d="M 0.839844 0.625 L 95.222656 0.625 L 95.222656 90.53125 L 0.839844 90.53125 Z M 0.839844 0.625 " clip-rule="nonzero"/></clipPath><clipPath id="b9e855bca4"><path d="M 48 0.625 L 59.132812 34.964844 L 95.164062 34.964844 L 66.015625 56.191406 L 77.148438 90.53125 L 48 69.304688 L 18.851562 90.53125 L 29.988281 56.191406 L 0.839844 34.964844 L 36.867188 34.964844 Z M 48 0.625 " clip-rule="nonzero"/></clipPath><clipPath id="086b39117a"><rect x="0" width="96" y="0" height="91"/></clipPath></defs><g clip-path="url(#644d16178d)"><g clip-path="url(#783d667184)"><g transform="matrix(1, 0, 0, 1, 2, 2)"><g clip-path="url(#a008af56ed)"><g clip-path="url(#e228941086)"><g clip-path="url(#dd12a7e2fe)"><path fill="#ffffff" d="M 0.121094 0.121094 L 107.882812 0.121094 L 107.882812 107.882812 L 0.121094 107.882812 Z M 0.121094 0.121094 " fill-opacity="1" fill-rule="nonzero"/></g></g></g></g></g></g><g clip-path="url(#1f4faea107)"><g clip-path="url(#978a7f8a04)"><g transform="matrix(1, 0, 0, 1, 8, 6)"><g clip-path="url(#086b39117a)"><g clip-path="url(#3a63e86302)"><g clip-path="url(#b9e855bca4)"><path fill="#c5a766" d="M 0.839844 0.625 L 95.308594 0.625 L 95.308594 90.53125 L 0.839844 90.53125 Z M 0.839844 0.625 " fill-opacity="1" fill-rule="nonzero"/></g></g></g></g></g></g></svg>